<?xml version="1.0" standalone="no"?>
<!DOCTYPE svg PUBLIC "-//W3C//DTD SVG 20010904//EN"
 "http://www.w3.org/TR/2001/REC-SVG-20010904/DTD/svg10.dtd">
<svg version="1.0" xmlns="http://www.w3.org/2000/svg"
 width="1000.000000pt" height="1000.000000pt" viewBox="0 0 1000.000000 1000.000000"
 preserveAspectRatio="xMidYMid meet">
<metadata>
Created by potrace 1.11, written by Peter Selinger 2001-2013
</metadata>
<g transform="translate(0.000000,1000.000000) scale(0.100000,-0.100000)"
fill="#000000" stroke="none">
<path d="M4790 9776 c-66 -19 -114 -41 -162 -75 -64 -44 -4304 -4288 -4340
-4344 -52 -80 -76 -165 -76 -268 0 -102 8 -137 50 -229 29 -61 166 -200 2282
-2316 2136 -2136 2254 -2252 2317 -2282 147 -68 304 -67 447 3 76 37 111 72
2210 2169 1173 1172 2152 2158 2176 2191 24 33 55 92 69 131 22 60 25 85 23
170 -3 113 -24 184 -80 267 -19 29 -1040 1056 -2268 2283 -2106 2105 -2237
2233 -2298 2262 -112 52 -248 66 -350 38z"/>
</g>
</svg>
