<?xml version="1.0" standalone="no"?>
<!DOCTYPE svg PUBLIC "-//W3C//DTD SVG 20010904//EN"
 "http://www.w3.org/TR/2001/REC-SVG-20010904/DTD/svg10.dtd">
<svg version="1.0" xmlns="http://www.w3.org/2000/svg"
 width="985.000000pt" height="985.000000pt" viewBox="0 0 985.000000 985.000000"
 preserveAspectRatio="xMidYMid meet">
<metadata>
Created by potrace 1.11, written by Peter Selinger 2001-2013
</metadata>
<g transform="translate(0.000000,985.000000) scale(0.100000,-0.100000)"
fill="#000000" stroke="none">
<path d="M359 9826 c-42 -12 -99 -37 -128 -55 -103 -66 -189 -189 -217 -309
-11 -47 -14 -824 -13 -4542 0 -4892 -4 -4525 56 -4650 34 -70 140 -176 214
-213 123 -61 -246 -57 4646 -57 3223 0 4497 3 4535 11 165 34 307 159 370 325
l23 59 3 4505 c2 4943 7 4553 -56 4680 -50 101 -183 214 -292 246 -14 4 -32
10 -40 13 -8 3 -2042 6 -4520 8 l-4505 2 -76 -23z"/>
</g>
</svg>
